<?xml version="1.0" encoding="UTF-8"?>
<!DOCTYPE svg PUBLIC "-//W3C//DTD SVG 1.1//EN" "http://www.w3.org/Graphics/SVG/1.1/DTD/svg11.dtd">
<svg xmlns="http://www.w3.org/2000/svg" version="1.1" width="23px" height="20px" style="shape-rendering:geometricPrecision; text-rendering:geometricPrecision; image-rendering:optimizeQuality; fill-rule:evenodd; clip-rule:evenodd" xmlns:xlink="http://www.w3.org/1999/xlink">
<g><path style="opacity:1" fill="#fefcfa" d="M -0.5,-0.5 C 7.16667,-0.5 14.8333,-0.5 22.5,-0.5C 22.5,6.16667 22.5,12.8333 22.5,19.5C 14.8333,19.5 7.16667,19.5 -0.5,19.5C -0.5,12.8333 -0.5,6.16667 -0.5,-0.5 Z"/></g>
<g><path style="opacity:1" fill="#f2c234" d="M 10.5,6.5 C 12.879,8.50114 15.2123,10.5011 17.5,12.5C 20.1239,14.1978 20.1239,16.0312 17.5,18C 12.5,18.6667 7.5,18.6667 2.5,18C 1.91858,17.1074 1.58524,16.1074 1.5,15C 2.29918,12.851 3.13251,10.6843 4,8.5C 5.7889,6.77099 7.95557,6.10433 10.5,6.5 Z"/></g>
<g><path style="opacity:1" fill="#faeace" d="M 17.5,12.5 C 15.2123,10.5011 12.879,8.50114 10.5,6.5C 9.6343,4.85598 9.1343,3.18931 9,1.5C 10.1096,3.03683 11.6096,3.7035 13.5,3.5C 13.6932,-0.449038 14.1932,-0.449038 15,3.5C 15.6667,4.83333 16.3333,4.83333 17,3.5C 17.4828,4.44802 17.6495,5.44802 17.5,6.5C 18.8221,6.66997 19.9887,6.33663 21,5.5C 21.1881,7.0613 20.3547,7.72797 18.5,7.5C 18.4802,9.14297 19.1468,10.4763 20.5,11.5C 19.5281,11.593 18.5281,11.9264 17.5,12.5 Z"/></g>
</svg>
